<svg width="17" height="16" viewBox="0 0 17 16" fill="none" xmlns="http://www.w3.org/2000/svg">
<path d="M15.8495 5.55172L11.1385 4.86705L9.03249 0.597614C8.97497 0.48072 8.88034 0.386091 8.76345 0.328571C8.47028 0.183845 8.11403 0.30445 7.96745 0.597614L5.86149 4.86705L1.15045 5.55172C1.02057 5.57027 0.901822 5.6315 0.810904 5.72428C0.700989 5.83725 0.640421 5.98924 0.642508 6.14684C0.644596 6.30445 0.709168 6.45478 0.822037 6.5648L4.23054 9.88795L3.42526 14.5804C3.40638 14.6896 3.41846 14.8019 3.46013 14.9045C3.5018 15.0071 3.5714 15.096 3.66103 15.1611C3.75067 15.2262 3.85675 15.2649 3.96724 15.2728C4.07774 15.2807 4.18824 15.2574 4.2862 15.2057L8.49997 12.9903L12.7137 15.2057C12.8288 15.267 12.9624 15.2874 13.0904 15.2651C13.4133 15.2094 13.6303 14.9033 13.5747 14.5804L12.7694 9.88795L16.1779 6.5648C16.2707 6.47389 16.3319 6.35513 16.3505 6.22525C16.4006 5.90055 16.1742 5.59996 15.8495 5.55172ZM11.3351 9.42037L12.005 13.3224L8.49997 11.4818L4.99499 13.3243L5.66481 9.42223L2.82966 6.65758L6.74841 6.08795L8.49997 2.53843L10.2515 6.08795L14.1703 6.65758L11.3351 9.42037Z" fill="#FFDF8E"/>
</svg>
