<svg width="17" height="16" viewBox="0 0 17 16" fill="none" xmlns="http://www.w3.org/2000/svg">
<path d="M16.0074 5.56251L11.0484 4.8418L8.83161 0.347663C8.77106 0.224617 8.67145 0.125007 8.54841 0.0644604C8.23981 -0.0878834 7.86481 0.0390697 7.71052 0.347663L5.49372 4.8418L0.534735 5.56251C0.398016 5.58204 0.273016 5.64649 0.177313 5.74415C0.0616135 5.86307 -0.0021424 6.02305 5.49725e-05 6.18896C0.00225234 6.35486 0.0702231 6.5131 0.189032 6.62891L3.77692 10.127L2.92927 15.0664C2.90939 15.1813 2.9221 15.2995 2.96597 15.4075C3.00984 15.5156 3.0831 15.6092 3.17745 15.6777C3.2718 15.7462 3.38346 15.7869 3.49977 15.7952C3.61609 15.8035 3.7324 15.7791 3.83552 15.7246L8.27106 13.3926L12.7066 15.7246C12.8277 15.7891 12.9683 15.8106 13.1031 15.7871C13.4429 15.7285 13.6715 15.4063 13.6129 15.0664L12.7652 10.127L16.3531 6.62891C16.4508 6.53321 16.5152 6.40821 16.5347 6.27149C16.5875 5.92969 16.3492 5.61329 16.0074 5.56251V5.56251Z" fill="#FFDF8E"/>
</svg>
