<svg width="20" height="20" viewBox="0 0 20 20" fill="none" xmlns="http://www.w3.org/2000/svg">
<path d="M15.0015 17.5002H13.7643C13.0268 17.5185 12.3077 17.2686 11.7405 16.7969C11.1732 16.3253 10.7964 15.6638 10.6798 14.9354C11.5411 14.7759 12.3196 14.3203 12.8804 13.6472C13.4412 12.9742 13.7489 12.1263 13.7502 11.2502V5.00024C13.7502 4.00568 13.3552 3.05186 12.6519 2.34859C11.9486 1.64533 10.9948 1.25024 10.0002 1.25024C9.00568 1.25024 8.05186 1.64533 7.3486 2.34859C6.64533 3.05186 6.25025 4.00568 6.25025 5.00024V11.2502C6.2518 12.1428 6.57145 13.0056 7.15181 13.6837C7.73217 14.3618 8.53524 14.8108 9.41685 14.9502C9.53458 15.9168 9.97518 16.8153 10.6673 17.5002H5.00147C4.8357 17.5002 4.67673 17.5661 4.55952 17.6833C4.44231 17.8005 4.37646 17.9595 4.37646 18.1252C4.37646 18.291 4.44231 18.45 4.55952 18.5672C4.67673 18.6844 4.8357 18.7502 5.00147 18.7502H15.0015C15.1672 18.7502 15.3262 18.6844 15.4434 18.5672C15.5606 18.45 15.6265 18.291 15.6265 18.1252C15.6265 17.9595 15.5606 17.8005 15.4434 17.6833C15.3262 17.5661 15.1672 17.5002 15.0015 17.5002ZM7.50025 9.36774V8.12524H12.5002V9.36774H7.50025ZM10.0002 2.50024C10.6631 2.50091 11.2986 2.76451 11.7673 3.23321C12.236 3.70191 12.4996 4.33741 12.5002 5.00024V6.87524H7.50025V5.00024C7.50091 4.33741 7.76451 3.70191 8.23321 3.23321C8.70191 2.76451 9.33741 2.50091 10.0002 2.50024Z" fill="black"/>
<path d="M7.5 9.375H12.5V11.25C12.5 12.6307 11.3807 13.75 10 13.75C8.61929 13.75 7.5 12.6307 7.5 11.25V9.375Z" fill="black"/>
<rect x="7.5" y="6.875" width="5" height="1.25" fill="black"/>
</svg>
