<svg width="17" height="17" viewBox="0 0 17 17" fill="none" xmlns="http://www.w3.org/2000/svg">
<path fill-rule="evenodd" clip-rule="evenodd" d="M0 5.3125C0 4.74891 0.223883 4.20841 0.622398 3.8099C1.02091 3.41138 1.56141 3.1875 2.125 3.1875H10.0938C10.6092 3.18744 11.107 3.3747 11.4946 3.71442C11.8822 4.05414 12.1332 4.52316 12.2007 5.03412L15.5051 3.56575C15.6668 3.49368 15.844 3.46318 16.0205 3.47702C16.197 3.49085 16.3673 3.54859 16.5159 3.64497C16.6644 3.74136 16.7865 3.87334 16.871 4.02892C16.9556 4.1845 16.9999 4.35874 17 4.53581V12.4642C16.9998 12.6411 16.9555 12.8152 16.871 12.9707C16.7865 13.1261 16.6645 13.258 16.5161 13.3544C16.3678 13.4507 16.1977 13.5085 16.0213 13.5225C15.8449 13.5364 15.6678 13.5061 15.5061 13.4342L12.2007 11.9659C12.1332 12.4768 11.8822 12.9459 11.4946 13.2856C11.107 13.6253 10.6092 13.8126 10.0938 13.8125H2.125C1.56141 13.8125 1.02091 13.5886 0.622398 13.1901C0.223883 12.7916 0 12.2511 0 11.6875V5.3125ZM12.2188 10.8109L15.9375 12.4642V4.53581L12.2188 6.18906V10.8109ZM2.125 4.25C1.84321 4.25 1.57296 4.36194 1.3737 4.5612C1.17444 4.76046 1.0625 5.03071 1.0625 5.3125V11.6875C1.0625 11.9693 1.17444 12.2395 1.3737 12.4388C1.57296 12.6381 1.84321 12.75 2.125 12.75H10.0938C10.3755 12.75 10.6458 12.6381 10.8451 12.4388C11.0443 12.2395 11.1562 11.9693 11.1562 11.6875V5.3125C11.1562 5.03071 11.0443 4.76046 10.8451 4.5612C10.6458 4.36194 10.3755 4.25 10.0938 4.25H2.125Z" fill="#6B6B6B"/>
</svg>
