<svg width="21" height="20" viewBox="0 0 21 20" fill="none" xmlns="http://www.w3.org/2000/svg">
<path d="M18.6565 5.8114C18.4756 5.69859 18.2687 5.63428 18.0558 5.62466C17.8428 5.61503 17.631 5.66043 17.4407 5.75647C17.4216 5.76609 17.4031 5.77668 17.3851 5.78821L15.501 6.98587V6.25024C15.5 5.42174 15.1705 4.62745 14.5846 4.04161C13.9988 3.45577 13.2045 3.12622 12.376 3.12524H4.87598C4.04747 3.12622 3.25318 3.45577 2.66734 4.04161C2.0815 4.62745 1.75195 5.42174 1.75098 6.25024V13.7502C1.75195 14.5787 2.0815 15.373 2.66734 15.9589C3.25318 16.5447 4.04747 16.8743 4.87598 16.8752H12.376C13.2045 16.8743 13.9988 16.5447 14.5846 15.9589C15.1704 15.373 15.5 14.5787 15.501 13.7502V13.0134L17.3851 14.211C17.4028 14.2226 17.4211 14.233 17.4401 14.2422C17.6306 14.3376 17.8424 14.3828 18.0553 14.3733C18.2682 14.3639 18.4751 14.3001 18.6564 14.1881C18.8377 14.0761 18.9874 13.9196 19.0911 13.7335C19.1949 13.5473 19.2493 13.3377 19.2491 13.1246V6.87461C19.2499 6.66143 19.1958 6.45164 19.092 6.26543C18.9882 6.07922 18.8382 5.92286 18.6565 5.8114ZM14.251 13.7502C14.2504 14.2474 14.0527 14.724 13.7012 15.0755C13.3497 15.427 12.8731 15.6247 12.376 15.6252H4.87598C4.37886 15.6247 3.90227 15.427 3.55075 15.0755C3.19924 14.724 3.00152 14.2474 3.00098 13.7502V6.25024C3.00152 5.75313 3.19924 5.27653 3.55075 4.92502C3.90226 4.57351 4.37886 4.37579 4.87598 4.37524H12.376C12.8731 4.37579 13.3497 4.57351 13.7012 4.92502C14.0527 5.27653 14.2504 5.75313 14.251 6.25024V13.7502ZM15.501 11.5327V8.46658L17.9991 6.87891L18.0004 13.121L15.501 11.5327Z" fill="black" fill-opacity="0.95"/>
<path d="M6.125 8.75C6.81536 8.75 7.375 8.19036 7.375 7.5C7.375 6.80964 6.81536 6.25 6.125 6.25C5.43464 6.25 4.875 6.80964 4.875 7.5C4.875 8.19036 5.43464 8.75 6.125 8.75Z" fill="black"/>
</svg>
