<svg width="16" height="16" viewBox="0 0 16 16" fill="none" xmlns="http://www.w3.org/2000/svg">
<path d="M2.98885 14.5004C2.45855 14.5075 1.93235 14.4067 1.44225 14.204C1.32265 14.1496 1.21934 14.0649 1.14252 13.9582C1.0657 13.8516 1.01804 13.7268 1.00425 13.5961C0.990307 13.4669 1.01082 13.3363 1.0637 13.2175C1.11659 13.0988 1.19996 12.9961 1.30535 12.92C1.3659 12.8756 1.436 12.8307 1.51315 12.7819C1.99413 12.5034 2.36084 12.0634 2.54815 11.5402C1.76073 10.3278 1.39987 8.8876 1.52262 7.4472C1.64538 6.00679 2.24475 4.6484 3.22597 3.58679C4.20719 2.52517 5.51428 1.8209 6.94058 1.58532C8.36688 1.34974 9.83101 1.5963 11.1015 2.28601C12.372 2.97572 13.3763 4.06923 13.9557 5.39366C14.5351 6.71808 14.6566 8.19785 14.3008 9.59902C13.9451 11.0002 13.1324 12.2428 11.9914 13.1304C10.8503 14.018 9.44597 14.4999 8.00035 14.5C7.04012 14.4996 6.0918 14.2874 5.223 13.8784C4.55001 14.2881 3.77672 14.5034 2.98885 14.5004ZM2.3319 13.4374C2.77429 13.5266 3.23025 13.5245 3.67178 13.4311C4.11331 13.3377 4.5311 13.1551 4.8995 12.8944C4.97512 12.8408 5.06418 12.8092 5.1567 12.8033C5.24923 12.7974 5.34158 12.8173 5.42345 12.8608C6.61495 13.4931 7.99722 13.6658 9.30767 13.346C10.6181 13.0262 11.7654 12.2361 12.5317 11.126C13.2979 10.0158 13.6297 8.6629 13.4639 7.32421C13.2982 5.98552 12.6465 4.75434 11.6327 3.86457C10.6189 2.97479 9.31352 2.48841 7.96464 2.49782C6.61577 2.50723 5.31734 3.01178 4.31602 3.91562C3.3147 4.81945 2.68026 6.0596 2.53322 7.40048C2.38619 8.74135 2.7368 10.0895 3.51845 11.1889C3.56597 11.2555 3.59639 11.3328 3.60703 11.4139C3.61768 11.4951 3.60822 11.5776 3.5795 11.6542C3.35683 12.3627 2.92119 12.9854 2.3319 13.4374Z" fill="black" fill-opacity="0.95"/>
</svg>
