<svg width="16" height="16" viewBox="0 0 16 16" fill="none" xmlns="http://www.w3.org/2000/svg">
<path d="M9 10.5001C8.99998 10.5658 9.0129 10.6308 9.03803 10.6915C9.06315 10.7521 9.09998 10.8073 9.14641 10.8537C9.19284 10.9001 9.24797 10.937 9.30864 10.9621C9.36931 10.9872 9.43433 11.0001 9.5 11.0001H14.5C14.6326 11.0001 14.7598 10.9474 14.8536 10.8537C14.9473 10.7599 15 10.6327 15 10.5001C15 10.3675 14.9473 10.2403 14.8536 10.1466C14.7598 10.0528 14.6326 10.0001 14.5 10.0001H9.5C9.43433 10.0001 9.36931 10.013 9.30864 10.0381C9.24797 10.0633 9.19284 10.1001 9.14641 10.1465C9.09998 10.193 9.06315 10.2481 9.03803 10.3088C9.0129 10.3694 8.99998 10.4344 9 10.5001Z" fill="black" fill-opacity="0.95"/>
<path d="M14.5 12.0001H9.5C9.36739 12.0001 9.24021 12.0528 9.14645 12.1466C9.05268 12.2403 9 12.3675 9 12.5001C9 12.6327 9.05268 12.7599 9.14645 12.8537C9.24021 12.9474 9.36739 13.0001 9.5 13.0001H14.5C14.6326 13.0001 14.7598 12.9474 14.8536 12.8537C14.9473 12.7599 15 12.6327 15 12.5001C15 12.3675 14.9473 12.2403 14.8536 12.1466C14.7598 12.0528 14.6326 12.0001 14.5 12.0001Z" fill="black" fill-opacity="0.95"/>
<path d="M14.5 14.0001H9.5C9.36739 14.0001 9.24021 14.0528 9.14645 14.1466C9.05268 14.2403 9 14.3675 9 14.5001C9 14.6327 9.05268 14.7599 9.14645 14.8537C9.24021 14.9474 9.36739 15.0001 9.5 15.0001H14.5C14.6326 15.0001 14.7598 14.9474 14.8536 14.8537C14.9473 14.7599 15 14.6327 15 14.5001C15 14.3675 14.9473 14.2403 14.8536 14.1466C14.7598 14.0528 14.6326 14.0001 14.5 14.0001Z" fill="black" fill-opacity="0.95"/>
<path d="M7.48097 13.9879C5.24293 14.068 3.18825 13.5909 2.36622 12.7985C2.25519 12.7039 2.16522 12.5872 2.10214 12.4557C2.03906 12.3243 2.00427 12.181 2.00001 12.0353C2.00001 9.57677 4.2898 7.50011 7.00001 7.50011C8.15441 7.49907 9.27717 7.87735 10.1956 8.57677C10.2476 8.61685 10.3071 8.64627 10.3705 8.66336C10.434 8.68045 10.5001 8.68487 10.5653 8.67637C10.6304 8.66787 10.6933 8.64661 10.7502 8.61382C10.8071 8.58102 10.857 8.53732 10.8971 8.48523C10.9371 8.43313 10.9665 8.37366 10.9835 8.31021C11.0006 8.24675 11.0049 8.18056 10.9964 8.11542C10.9878 8.05028 10.9665 7.98747 10.9336 7.93056C10.9008 7.87366 10.8571 7.82379 10.8049 7.7838C10.2541 7.36254 9.6363 7.03693 8.97744 6.82061C9.51599 6.40655 9.91126 5.83416 10.1077 5.18386C10.3041 4.53356 10.2919 3.83806 10.0727 3.19509C9.85341 2.55212 9.43822 1.99401 8.88541 1.59919C8.3326 1.20437 7.66998 0.99269 6.99066 0.993902C6.31134 0.995113 5.64948 1.20915 5.09808 1.60594C4.54669 2.00273 4.13349 2.56232 3.91654 3.20607C3.6996 3.84982 3.68982 4.54536 3.88858 5.19495C4.08735 5.84454 4.48466 6.41553 5.02468 6.82766C2.70932 7.60097 1 9.67055 1 12.0353C1.00436 12.3153 1.06628 12.5915 1.18191 12.8466C1.29753 13.1017 1.46439 13.3303 1.67212 13.5182C2.80762 14.6129 5.08081 14.9962 7.00269 14.9962C7.17725 14.9962 7.34936 14.9933 7.51709 14.9869C7.58271 14.9846 7.64723 14.9694 7.70696 14.9421C7.7667 14.9148 7.82047 14.876 7.8652 14.828C7.90994 14.7799 7.94476 14.7235 7.96768 14.662C7.9906 14.6004 8.00117 14.535 7.99878 14.4694C7.99727 14.4035 7.98258 14.3385 7.95557 14.2784C7.92855 14.2183 7.88977 14.1642 7.8415 14.1193C7.79323 14.0745 7.73646 14.0397 7.67454 14.0171C7.61261 13.9946 7.5468 13.9846 7.48097 13.9879ZM6.99634 2.00011C7.44135 2.00011 7.87636 2.13207 8.24637 2.37931C8.61638 2.62654 8.90477 2.97794 9.07507 3.38907C9.24537 3.80021 9.28992 4.25261 9.20311 4.68906C9.11629 5.12552 8.902 5.52643 8.58733 5.8411C8.27266 6.15577 7.87175 6.37006 7.43529 6.45688C6.99884 6.5437 6.54644 6.49914 6.1353 6.32884C5.72417 6.15854 5.37277 5.87016 5.12553 5.50014C4.8783 5.13013 4.74634 4.69512 4.74634 4.25011C4.74699 3.65357 4.98425 3.08166 5.40607 2.65984C5.82788 2.23802 6.3998 2.00076 6.99634 2.00011Z" fill="black" fill-opacity="0.95"/>
</svg>
