<svg width="17" height="16" viewBox="0 0 17 16" fill="none" xmlns="http://www.w3.org/2000/svg">
<path fill-rule="evenodd" clip-rule="evenodd" d="M11.6461 12.3834C11.9491 12.0605 12.1431 11.6506 12.2007 11.2115L15.5051 12.6799C15.6668 12.7519 15.844 12.7824 16.0205 12.7686C16.197 12.7548 16.3673 12.697 16.5159 12.6007C16.6644 12.5043 16.7865 12.3723 16.871 12.2167C16.9556 12.0611 16.9999 11.8869 17 11.7098V3.78144C16.9998 3.60451 16.9555 3.43041 16.871 3.27496C16.7865 3.11951 16.6645 2.98762 16.5161 2.89126C16.3678 2.7949 16.1977 2.73712 16.0213 2.72317C15.8449 2.70922 15.6678 2.73954 15.5061 2.81137L12.2007 4.27975C12.1332 3.76878 11.8822 3.29977 11.4946 2.96005C11.107 2.62033 10.6092 2.43306 10.0938 2.43313H4.539L5.29763 3.49563H10.0938C10.3755 3.49563 10.6458 3.60757 10.8451 3.80682C11.0443 4.00608 11.1562 4.27633 11.1562 4.55813V10.9331C11.1564 11.1271 11.1035 11.3174 11.0033 11.4835L11.6461 12.3834ZM1.51725 3.68687C1.37683 3.78468 1.26215 3.915 1.18296 4.0667C1.10378 4.2184 1.06245 4.387 1.0625 4.55813V10.9331C1.0625 11.2149 1.17444 11.4852 1.3737 11.6844C1.57296 11.8837 1.84321 11.9956 2.125 11.9956H7.45237L8.211 13.0581H2.125C1.56141 13.0581 1.02091 12.8342 0.622398 12.4357C0.223883 12.0372 0 11.4967 0 10.9331V4.55813C0 3.84094 0.354875 3.20662 0.899938 2.822L1.51619 3.68687H1.51725ZM15.9375 11.7087L12.2188 10.0566V5.43469L15.9375 3.78144V11.7098V11.7087ZM11.2551 15.4913L0.630063 0.61625L1.49494 0L12.1199 14.875L11.2551 15.4913Z" fill="#6B6B6B"/>
</svg>
