<svg width="22" height="20" viewBox="0 0 22 20" fill="none" xmlns="http://www.w3.org/2000/svg">
<path d="M20.1565 5.8114C19.9756 5.69859 19.7687 5.63428 19.5558 5.62466C19.3428 5.61503 19.131 5.66043 18.9407 5.75647C18.9216 5.76609 18.9031 5.77668 18.8851 5.78821L17.001 6.98587V6.25024C17 5.42174 16.6705 4.62745 16.0846 4.04161C15.4988 3.45577 14.7045 3.12622 13.876 3.12524H6.37598C5.54747 3.12622 4.75318 3.45577 4.16734 4.04161C3.5815 4.62745 3.25195 5.42174 3.25098 6.25024V13.7502C3.25195 14.5787 3.5815 15.373 4.16734 15.9589C4.75318 16.5447 5.54747 16.8743 6.37598 16.8752H13.876C14.7045 16.8743 15.4988 16.5447 16.0846 15.9589C16.6704 15.373 17 14.5787 17.001 13.7502V13.0134L18.8851 14.211C18.9028 14.2226 18.9211 14.233 18.9401 14.2422C19.1306 14.3376 19.3424 14.3828 19.5553 14.3733C19.7682 14.3639 19.9751 14.3001 20.1564 14.1881C20.3377 14.0761 20.4874 13.9196 20.5911 13.7335C20.6949 13.5473 20.7493 13.3377 20.7491 13.1246V6.87461C20.7499 6.66143 20.6958 6.45164 20.592 6.26543C20.4882 6.07922 20.3382 5.92286 20.1565 5.8114ZM15.751 13.7502C15.7504 14.2474 15.5527 14.724 15.2012 15.0755C14.8497 15.427 14.3731 15.6247 13.876 15.6252H6.37598C5.87886 15.6247 5.40227 15.427 5.05075 15.0755C4.69924 14.724 4.50152 14.2474 4.50098 13.7502V6.25024C4.50152 5.75313 4.69924 5.27653 5.05075 4.92502C5.40226 4.57351 5.87886 4.37579 6.37598 4.37524H13.876C14.3731 4.37579 14.8497 4.57351 15.2012 4.92502C15.5527 5.27653 15.7504 5.75313 15.751 6.25024V13.7502ZM17.001 11.5327V8.46658L19.4991 6.87891L19.5004 13.121L17.001 11.5327Z" fill="#FF4C4C"/>
<line x1="0.706849" y1="0.980896" x2="18.9809" y2="18.2932" stroke="#FF4C4C" stroke-linecap="round"/>
</svg>
