<svg width="12" height="12" viewBox="0 0 12 12" fill="none" xmlns="http://www.w3.org/2000/svg">
<path d="M7.1414 1.75053L3.2549 5.73752C3.18664 5.80755 3.14844 5.90148 3.14844 5.99927C3.14844 6.09707 3.18664 6.19099 3.2549 6.26102L7.1414 10.2495C7.1732 10.2822 7.21121 10.3081 7.25321 10.3259C7.2952 10.3436 7.34032 10.3527 7.3859 10.3527C7.43148 10.3527 7.4766 10.3436 7.51859 10.3259C7.56059 10.3081 7.5986 10.2822 7.6304 10.2495C7.69582 10.1825 7.73244 10.0926 7.73244 9.99902C7.73244 9.9054 7.69582 9.81549 7.6304 9.74852L3.97565 5.99927L7.6304 2.25078C7.69559 2.18384 7.73207 2.09409 7.73207 2.00066C7.73207 1.90722 7.69559 1.81747 7.6304 1.75053C7.5986 1.71787 7.56059 1.69192 7.51859 1.67419C7.4766 1.65647 7.43148 1.64734 7.3859 1.64734C7.34032 1.64734 7.2952 1.65647 7.25321 1.67419C7.21121 1.69192 7.1732 1.71787 7.1414 1.75053V1.75053Z" fill="black"/>
</svg>
