<svg width="12" height="12" viewBox="0 0 12 12" fill="none" xmlns="http://www.w3.org/2000/svg">
<path d="M3.99462 1.74978C3.9292 1.81675 3.89258 1.90666 3.89258 2.00028C3.89258 2.0939 3.9292 2.18381 3.99462 2.25078L7.64937 6.00002L3.99462 9.74852C3.9292 9.81549 3.89258 9.9054 3.89258 9.99902C3.89258 10.0926 3.9292 10.1825 3.99462 10.2495C4.02641 10.2822 4.06443 10.3081 4.10643 10.3259C4.14842 10.3436 4.19354 10.3527 4.23912 10.3527C4.2847 10.3527 4.32982 10.3436 4.37181 10.3259C4.4138 10.3081 4.45182 10.2822 4.48362 10.2495L8.37012 6.26177C8.43838 6.19174 8.47658 6.09782 8.47658 6.00002C8.47658 5.90223 8.43838 5.8083 8.37012 5.73827L4.48362 1.75053C4.45182 1.71787 4.4138 1.69192 4.37181 1.67419C4.32982 1.65647 4.2847 1.64734 4.23912 1.64734C4.19354 1.64734 4.14842 1.65647 4.10643 1.67419C4.06443 1.69192 4.02641 1.71787 3.99462 1.75053V1.74978Z" fill="black"/>
</svg>
