<svg width="17" height="17" viewBox="0 0 17 17" fill="none" xmlns="http://www.w3.org/2000/svg">
<path d="M15.935 4.15998L13 1.20999C12.8061 1.01702 12.5436 0.908691 12.27 0.908691C11.9964 0.908691 11.7339 1.01702 11.54 1.20999L1.135 11.6L0.184998 15.7C0.152226 15.8499 0.153349 16.0052 0.188286 16.1546C0.223223 16.3039 0.29109 16.4436 0.38693 16.5634C0.482769 16.6832 0.604161 16.7801 0.742236 16.847C0.880311 16.9139 1.03158 16.9491 1.185 16.95C1.25648 16.9572 1.32851 16.9572 1.4 16.95L5.545 16L15.935 5.61999C16.128 5.42604 16.2363 5.16358 16.2363 4.88998C16.2363 4.61639 16.128 4.35393 15.935 4.15998ZM5.045 15.1L1.16 15.915L2.045 12.105L9.83 4.34998L12.83 7.34999L5.045 15.1ZM13.5 6.62499L10.5 3.62498L12.24 1.89499L15.19 4.89498L13.5 6.62499Z" fill="#AEAEAE"/>
</svg>
