<svg width="13" height="13" viewBox="0 0 13 13" fill="none" xmlns="http://www.w3.org/2000/svg">
<path d="M11.5 12.7498H1.5C1.16848 12.7498 0.850537 12.6181 0.616116 12.3837C0.381696 12.1493 0.25 11.8314 0.25 11.4998V4.65547C0.26039 4.44887 0.321112 4.24794 0.426882 4.07017C0.532652 3.8924 0.680265 3.74317 0.856875 3.63547L5.85687 0.635469C6.05107 0.519026 6.27325 0.45752 6.49969 0.45752C6.72612 0.45752 6.9483 0.519026 7.1425 0.635469L12.1425 3.63547C12.5181 3.86234 12.7487 4.26859 12.75 4.70734V11.4998C12.75 11.8314 12.6183 12.1493 12.3839 12.3837C12.1495 12.6181 11.8315 12.7498 11.5 12.7498ZM1.5 5.16734V11.4998H11.5V5.16734L6.5 8.50047L1.5 5.16734ZM6.5 1.70734L2.3225 4.21359L6.5 6.99859L10.6769 4.21359L6.5 1.70734Z" fill="#9C9C9C"/>
</svg>
