<svg width="13" height="10" viewBox="0 0 13 10" fill="none" xmlns="http://www.w3.org/2000/svg">
<path d="M11.25 10H1.25C0.918479 10 0.600537 9.8683 0.366116 9.63388C0.131696 9.39946 0 9.08152 0 8.75V1.19563C0.0140204 0.873619 0.151881 0.569474 0.384799 0.346688C0.617717 0.123902 0.927689 -0.000304524 1.25 5.607e-07H11.25C11.5815 5.607e-07 11.8995 0.131697 12.1339 0.366117C12.3683 0.600537 12.5 0.91848 12.5 1.25V8.75C12.5 9.08152 12.3683 9.39946 12.1339 9.63388C11.8995 9.8683 11.5815 10 11.25 10ZM1.25 2.4175V8.75H11.25V2.4175L6.25 5.75L1.25 2.4175ZM1.75 1.25L6.25 4.25L10.75 1.25H1.75Z" fill="#9C9C9C"/>
</svg>
