<svg width="20" height="20" viewBox="0 0 20 20" fill="none" xmlns="http://www.w3.org/2000/svg">
<path d="M12.5 14.1667H7.49998M12.5 14.1667H16.6666L15.4958 12.9958C15.3386 12.8386 15.2139 12.6519 15.1288 12.4464C15.0437 12.2409 14.9999 12.0207 15 11.7983V9.16667C15.0001 8.13245 14.6796 7.12362 14.0827 6.27907C13.4857 5.43453 12.6416 4.7958 11.6666 4.45083V4.16667C11.6666 3.72464 11.491 3.30072 11.1785 2.98816C10.8659 2.67559 10.442 2.5 9.99998 2.5C9.55795 2.5 9.13403 2.67559 8.82147 2.98816C8.50891 3.30072 8.33331 3.72464 8.33331 4.16667V4.45083C6.39165 5.1375 4.99998 6.99 4.99998 9.16667V11.7992C4.99998 12.2475 4.82165 12.6783 4.50415 12.9958L3.33331 14.1667H7.49998H12.5ZM12.5 14.1667V15C12.5 15.663 12.2366 16.2989 11.7677 16.7678C11.2989 17.2366 10.663 17.5 9.99998 17.5C9.33694 17.5 8.70105 17.2366 8.23221 16.7678C7.76337 16.2989 7.49998 15.663 7.49998 15V14.1667H12.5Z" stroke="#CCCCCC" strokeWidth="1.5" stroke-linecap="round" strokeLinejoin="round"/>
</svg>
