<svg width="44" height="44" viewBox="0 0 44 44" fill="none" xmlns="http://www.w3.org/2000/svg">
<path d="M22 2.75C27.1054 2.75 32.0017 4.77812 35.6118 8.38819C39.2219 11.9983 41.25 16.8946 41.25 22C41.25 27.1054 39.2219 32.0017 35.6118 35.6118C32.0017 39.2219 27.1054 41.25 22 41.25C16.8946 41.25 11.9983 39.2219 8.38819 35.6118C4.77812 32.0017 2.75 27.1054 2.75 22C2.75 16.8946 4.77812 11.9983 8.38819 8.38819C11.9983 4.77812 16.8946 2.75 22 2.75ZM19.602 25.7977L15.3258 21.5187C15.1724 21.3654 14.9905 21.2438 14.7902 21.1609C14.5899 21.0779 14.3752 21.0352 14.1584 21.0352C13.9416 21.0352 13.7269 21.0779 13.5266 21.1609C13.3263 21.2438 13.1443 21.3654 12.991 21.5187C12.6814 21.8284 12.5075 22.2483 12.5075 22.6861C12.5075 23.124 12.6814 23.5439 12.991 23.8535L18.436 29.2985C18.5889 29.4526 18.7707 29.5749 18.9711 29.6583C19.1714 29.7418 19.3863 29.7847 19.6034 29.7847C19.8204 29.7847 20.0353 29.7418 20.2357 29.6583C20.436 29.5749 20.6179 29.4526 20.7708 29.2985L32.0457 18.0208C32.2011 17.8681 32.3247 17.6862 32.4094 17.4855C32.4941 17.2848 32.5382 17.0694 32.5392 16.8516C32.5402 16.6338 32.4981 16.4179 32.4153 16.2165C32.3325 16.015 32.2106 15.832 32.0566 15.6779C31.9027 15.5238 31.7198 15.4017 31.5185 15.3186C31.3171 15.2355 31.1013 15.1932 30.8835 15.1939C30.6657 15.1947 30.4502 15.2385 30.2494 15.323C30.0487 15.4075 29.8666 15.5308 29.7138 15.686L19.602 25.7977Z" fill="#70AB66"/>
</svg>
