<svg width="15" height="12" viewBox="0 0 15 12" fill="none" xmlns="http://www.w3.org/2000/svg">
<path d="M12.9201 0.962479C13.0054 0.875436 13.1072 0.806288 13.2196 0.759082C13.3319 0.711876 13.4526 0.687561 13.5745 0.687561C13.6963 0.687561 13.817 0.711876 13.9294 0.759082C14.0417 0.806288 14.1435 0.875436 14.2288 0.962479C14.5863 1.32373 14.5913 1.90748 14.2413 2.27498L6.8501 11.0125C6.76618 11.1046 6.66434 11.1787 6.55082 11.2301C6.4373 11.2816 6.31447 11.3093 6.18986 11.3117C6.06524 11.314 5.94146 11.2909 5.82609 11.2437C5.71071 11.1966 5.60617 11.1264 5.51885 11.0375L1.02135 6.47998C0.847894 6.30309 0.750732 6.06522 0.750732 5.81748C0.750732 5.56973 0.847894 5.33187 1.02135 5.15498C1.10665 5.06794 1.20847 4.99879 1.32083 4.95158C1.4332 4.90438 1.55385 4.88006 1.67572 4.88006C1.7976 4.88006 1.91825 4.90438 2.03061 4.95158C2.14297 4.99879 2.24479 5.06794 2.3301 5.15498L6.1451 9.02123L12.8951 0.989979C12.9029 0.980318 12.9112 0.971135 12.9201 0.962479Z" fill="black"/>
</svg>
