<svg width="16" height="16" viewBox="0 0 16 16" fill="none" xmlns="http://www.w3.org/2000/svg">
<path d="M15.1875 0.1875H0.8125C0.466797 0.1875 0.1875 0.466797 0.1875 0.8125V15.1875C0.1875 15.5332 0.466797 15.8125 0.8125 15.8125H15.1875C15.5332 15.8125 15.8125 15.5332 15.8125 15.1875V0.8125C15.8125 0.466797 15.5332 0.1875 15.1875 0.1875ZM11.75 8.46875C11.75 8.55469 11.6797 8.625 11.5938 8.625H8.625V11.5938C8.625 11.6797 8.55469 11.75 8.46875 11.75H7.53125C7.44531 11.75 7.375 11.6797 7.375 11.5938V8.625H4.40625C4.32031 8.625 4.25 8.55469 4.25 8.46875V7.53125C4.25 7.44531 4.32031 7.375 4.40625 7.375H7.375V4.40625C7.375 4.32031 7.44531 4.25 7.53125 4.25H8.46875C8.55469 4.25 8.625 4.32031 8.625 4.40625V7.375H11.5938C11.6797 7.375 11.75 7.44531 11.75 7.53125V8.46875Z" fill="black"/>
</svg>
