<svg width="18" height="18" viewBox="0 0 35 35" fill="black" xmlns="http://www.w3.org/2000/svg">
<path fill-rule="evenodd" clip-rule="evenodd" d="M17.5 1.4585C8.64061 1.4585 1.45831 8.64079 1.45831 17.5002C1.45831 26.3595 8.64061 33.5418 17.5 33.5418C26.3594 33.5418 33.5416 26.3595 33.5416 17.5002C33.5416 8.64079 26.3594 1.4585 17.5 1.4585ZM22.906 14.1562C23.1717 13.8812 23.3187 13.5128 23.3153 13.1304C23.312 12.748 23.1586 12.3823 22.8883 12.1119C22.6179 11.8415 22.2521 11.6881 21.8697 11.6848C21.4874 11.6815 21.119 11.8285 20.8439 12.0941L17.5 15.4381L14.156 12.0941C14.0215 11.9548 13.8606 11.8437 13.6827 11.7673C13.5047 11.6909 13.3134 11.6506 13.1197 11.649C12.9261 11.6473 12.7341 11.6842 12.5548 11.7575C12.3756 11.8308 12.2128 11.9391 12.0759 12.076C11.9389 12.213 11.8307 12.3758 11.7573 12.555C11.684 12.7342 11.6471 12.9263 11.6488 13.1199C11.6505 13.3136 11.6907 13.5049 11.7671 13.6828C11.8436 13.8608 11.9547 14.0217 12.0939 14.1562L15.4379 17.5002L12.0939 20.8441C11.9547 20.9787 11.8436 21.1396 11.7671 21.3175C11.6907 21.4954 11.6505 21.6868 11.6488 21.8804C11.6471 22.0741 11.684 22.2661 11.7573 22.4453C11.8307 22.6245 11.9389 22.7874 12.0759 22.9243C12.2128 23.0612 12.3756 23.1695 12.5548 23.2428C12.7341 23.3161 12.9261 23.353 13.1197 23.3514C13.3134 23.3497 13.5047 23.3095 13.6827 23.233C13.8606 23.1566 14.0215 23.0455 14.156 22.9062L17.5 19.5622L20.8439 22.9062C21.119 23.1719 21.4874 23.3188 21.8697 23.3155C22.2521 23.3122 22.6179 23.1588 22.8883 22.8884C23.1586 22.6181 23.312 22.2523 23.3153 21.8699C23.3187 21.4875 23.1717 21.1192 22.906 20.8441L19.5621 17.5002L22.906 14.1562Z" fill="red"/>
</svg>
