<svg width="18" height="18" viewBox="0 0 35 35" fill="none" xmlns="http://www.w3.org/2000/svg">
<path fill-rule="evenodd" clip-rule="evenodd" d="M17.5 1.4585C8.64062 1.4585 1.45833 8.64079 1.45833 17.5002C1.45833 26.3595 8.64062 33.5418 17.5 33.5418C26.3594 33.5418 33.5417 26.3595 33.5417 17.5002C33.5417 8.64079 26.3594 1.4585 17.5 1.4585ZM24.4533 14.7877C24.5814 14.6413 24.6788 14.4708 24.74 14.2862C24.8012 14.1017 24.8248 13.9067 24.8096 13.7128C24.7943 13.519 24.7404 13.3302 24.651 13.1574C24.5617 12.9847 24.4387 12.8316 24.2893 12.7071C24.14 12.5826 23.9672 12.4893 23.7812 12.4325C23.5952 12.3758 23.3997 12.3569 23.2063 12.3768C23.0129 12.3967 22.8254 12.4551 22.6548 12.5486C22.4843 12.642 22.3342 12.7687 22.2133 12.921L15.9425 20.4445L12.6977 17.1983C12.4227 16.9326 12.0543 16.7857 11.6719 16.789C11.2895 16.7923 10.9238 16.9457 10.6534 17.2161C10.383 17.4864 10.2296 17.8522 10.2263 18.2346C10.223 18.617 10.37 18.9853 10.6356 19.2604L15.0106 23.6354C15.1539 23.7786 15.3255 23.8904 15.5144 23.9636C15.7032 24.0368 15.9053 24.0699 16.1077 24.0607C16.3101 24.0515 16.5083 24.0002 16.6898 23.9102C16.8712 23.8201 17.0319 23.6933 17.1617 23.5377L24.4533 14.7877Z" fill="#6667ab"/>
</svg>
