<svg width="18" height="18" viewBox="0 0 35 35" fill="none" xmlns="http://www.w3.org/2000/svg">
<path d="M10.0755 14.0794C10.9148 14.0794 11.5952 13.399 11.5952 12.5597C11.5952 11.7204 10.9148 11.04 10.0755 11.04C9.23618 11.04 8.55579 11.7204 8.55579 12.5597C8.55579 13.399 9.23618 14.0794 10.0755 14.0794Z" fill="black"/>
<path d="M23.1112 8.50409C24.8059 8.50409 26.1797 7.1303 26.1797 5.43564C26.1797 3.74098 24.8059 2.36719 23.1112 2.36719C21.4166 2.36719 20.0428 3.74098 20.0428 5.43564C20.0428 7.1303 21.4166 8.50409 23.1112 8.50409Z" fill="black"/>
<path d="M16.7826 8.32928C17.8397 8.32928 18.6967 7.47228 18.6967 6.41513C18.6967 5.35797 17.8397 4.50098 16.7826 4.50098C15.7254 4.50098 14.8684 5.35797 14.8684 6.41513C14.8684 7.47228 15.7254 8.32928 16.7826 8.32928Z" fill="black"/>
<path d="M25.5994 25.915C25.1277 25.158 24.863 24.2904 24.8317 23.399C24.8004 22.5077 25.0035 21.6237 25.4209 20.8354L25.409 20.8176C26.1947 19.6411 26.6133 18.2577 26.6116 16.843C26.6116 12.8789 23.3979 9.66553 19.4341 9.66553C15.47 9.66553 12.2567 12.8789 12.2567 16.843C12.2567 17.6172 12.3827 18.3613 12.6098 19.0602C12.7602 19.6784 13.0043 20.2698 13.3336 20.8141L13.3 20.8333L18.4989 29.8385C19.0477 31.4625 20.5804 32.6329 22.3892 32.6329C24.6586 32.6329 26.4992 30.7933 26.4992 28.5235C26.4992 27.539 26.152 26.6356 25.5742 25.9279L25.5994 25.915V25.915Z" fill="black"/>
<path d="M12.7397 10.8622C13.579 10.8622 14.2594 10.1818 14.2594 9.34245C14.2594 8.50315 13.579 7.82275 12.7397 7.82275C11.9004 7.82275 11.22 8.50315 11.22 9.34245C11.22 10.1818 11.9004 10.8622 12.7397 10.8622Z" fill="black"/>
</svg>
