<svg width="18" height="18" viewBox="0 0 35 35" fill="none" xmlns="http://www.w3.org/2000/svg">
<path fill-rule="evenodd" clip-rule="evenodd" d="M3 17.4998C3 9.44546 9.52896 2.9165 17.5833 2.9165C25.6377 2.9165 32.1667 9.44546 32.1667 17.4998C32.1667 25.5542 25.6377 32.0832 17.5833 32.0832C9.52896 32.0832 3 25.5542 3 17.4998ZM19.0417 10.2082C19.0417 9.8214 18.888 9.45046 18.6145 9.17697C18.341 8.90348 17.9701 8.74984 17.5833 8.74984C17.1966 8.74984 16.8256 8.90348 16.5521 9.17697C16.2786 9.45046 16.125 9.8214 16.125 10.2082V15.6973C16.125 16.5097 16.3512 17.306 16.7783 17.9971C17.2053 18.6881 17.8164 19.2466 18.5429 19.61L22.7648 21.7203C22.9367 21.813 23.1255 21.8702 23.3199 21.8885C23.5143 21.9069 23.7105 21.886 23.8967 21.8271C24.0829 21.7682 24.2554 21.6725 24.4039 21.5457C24.5525 21.4189 24.674 21.2635 24.7613 21.0888C24.8487 20.9142 24.9001 20.7237 24.9124 20.5288C24.9247 20.3339 24.8978 20.1385 24.8332 19.9542C24.7686 19.7699 24.6676 19.6004 24.5362 19.4559C24.4049 19.3113 24.2458 19.1947 24.0685 19.1128L19.8481 17.0011C19.6059 16.8801 19.4022 16.694 19.2598 16.4637C19.1173 16.2335 19.0418 15.9681 19.0417 15.6973V10.2082V10.2082Z" fill="orange"/>
</svg>
