<svg width="10" height="10" viewBox="0 0 10 10" fill="none" xmlns="http://www.w3.org/2000/svg">
<path d="M0.807396 0.807518C0.865453 0.749314 0.934423 0.703135 1.01035 0.671627C1.08629 0.640119 1.16769 0.623901 1.2499 0.623901C1.33211 0.623901 1.41351 0.640119 1.48944 0.671627C1.56537 0.703135 1.63434 0.749314 1.6924 0.807518L4.9999 4.11627L8.3074 0.807518C8.36551 0.749408 8.43449 0.703313 8.51042 0.671864C8.58634 0.640415 8.66772 0.624229 8.7499 0.624229C8.83208 0.624229 8.91345 0.640415 8.98938 0.671864C9.0653 0.703313 9.13429 0.749408 9.1924 0.807518C9.25051 0.865628 9.2966 0.934615 9.32805 1.01054C9.3595 1.08646 9.37569 1.16784 9.37569 1.25002C9.37569 1.3322 9.3595 1.41357 9.32805 1.4895C9.2966 1.56542 9.25051 1.63441 9.1924 1.69252L5.88365 5.00002L9.1924 8.30752C9.25051 8.36563 9.2966 8.43461 9.32805 8.51054C9.3595 8.58646 9.37569 8.66784 9.37569 8.75002C9.37569 8.8322 9.3595 8.91357 9.32805 8.9895C9.2966 9.06542 9.25051 9.13441 9.1924 9.19252C9.13429 9.25063 9.0653 9.29672 8.98938 9.32817C8.91345 9.35962 8.83208 9.37581 8.7499 9.37581C8.66772 9.37581 8.58634 9.35962 8.51042 9.32817C8.43449 9.29672 8.36551 9.25063 8.3074 9.19252L4.9999 5.88377L1.6924 9.19252C1.63429 9.25063 1.5653 9.29672 1.48938 9.32817C1.41345 9.35962 1.33208 9.37581 1.2499 9.37581C1.16772 9.37581 1.08634 9.35962 1.01042 9.32817C0.934492 9.29672 0.865506 9.25063 0.807396 9.19252C0.749286 9.13441 0.703191 9.06542 0.671742 8.9895C0.640293 8.91357 0.624107 8.8322 0.624107 8.75002C0.624107 8.66784 0.640293 8.58646 0.671742 8.51054C0.703191 8.43461 0.749286 8.36563 0.807396 8.30752L4.11615 5.00002L0.807396 1.69252C0.749192 1.63446 0.703013 1.56549 0.671505 1.48956C0.639997 1.41363 0.623779 1.33223 0.623779 1.25002C0.623779 1.16781 0.639997 1.08641 0.671505 1.01048C0.703013 0.934545 0.749192 0.865575 0.807396 0.807518Z" fill="black"/>
</svg>
