<svg width="16" height="16" viewBox="0 0 16 16" fill="none" xmlns="http://www.w3.org/2000/svg">
<path d="M6.99992 14.6666C3.50212 14.6666 0.666586 11.6819 0.666586 7.99998C0.666586 4.31808 3.50212 1.33331 6.99992 1.33331C10.4977 1.33331 13.3333 4.31808 13.3333 7.99998C13.3333 11.6819 10.4977 14.6666 6.99992 14.6666Z" stroke="#0C0C0C" stroke-linecap="round" stroke-linejoin="round"/>
<path d="M8.66663 5.86665C8.24232 5.52258 7.7129 5.33434 7.16663 5.33331C5.78596 5.33331 4.66663 6.52665 4.66663 7.99998C4.66663 9.47331 5.78596 10.6666 7.16663 10.6666C7.72929 10.6666 8.24863 10.468 8.66663 10.1333" stroke="#0C0C0C" stroke-width="2" stroke-linecap="round" stroke-linejoin="round"/>
<path d="M6.66663 1.33331C9.55529 1.33331 15.3333 1.99998 15.3333 7.99998C15.3333 14 9.55529 14.6666 6.66663 14.6666" stroke="#0C0C0C"/>
</svg>
