<svg width="12" height="14" viewBox="0 0 12 14" fill="none" xmlns="http://www.w3.org/2000/svg">
<path d="M4.8125 13.25H7.5625H4.8125ZM1.375 5.01665C1.375 3.84085 1.88203 2.71322 2.78455 1.88181C3.68707 1.05039 4.91115 0.583313 6.1875 0.583313C7.46385 0.583313 8.68793 1.05039 9.59045 1.88181C10.493 2.71322 11 3.84085 11 5.01665C11.0005 5.73046 10.813 6.43373 10.4538 7.06621C10.0946 7.69869 9.57432 8.24152 8.9375 8.64818L8.56488 10.2733C8.51554 10.5729 8.35129 10.8462 8.10192 11.0437C7.85255 11.2413 7.53458 11.3499 7.20569 11.35H5.16931C4.84043 11.3499 4.52245 11.2413 4.27308 11.0437C4.02371 10.8462 3.85946 10.5729 3.81013 10.2733L3.4375 8.65515C2.80047 8.24704 2.28014 7.70294 1.92098 7.06934C1.56182 6.43573 1.37449 5.73144 1.375 5.01665V5.01665Z" stroke="#747474" stroke-linecap="round" stroke-linejoin="round"/>
<path d="M3.125 8.5H9.25" stroke="#747474" stroke-linecap="round" stroke-linejoin="round"/>
</svg>
