<svg width="56" height="61" viewBox="0 0 56 61" fill="none" xmlns="http://www.w3.org/2000/svg">
<path d="M26.5736 45.2208C25.3733 45.2208 24.2222 44.6968 23.3734 43.7642C22.5247 42.8315 22.0479 41.5665 22.0479 40.2476V33.6166C22.0479 32.2977 22.5247 31.0327 23.3734 30.1001C24.2222 29.1674 25.3733 28.6434 26.5736 28.6434C27.4833 28.6335 35.6252 26.9857 35.6252 20.3548C35.6252 17.0393 32.608 13.7239 28.0822 13.7239C24.3998 13.7239 22.0479 17.0393 22.0479 18.6971C22.0479 19.3501 21.9308 19.9968 21.7034 20.6002C21.4759 21.2036 21.1426 21.7518 20.7223 22.2136C20.3021 22.6754 19.8031 23.0418 19.254 23.2917C18.705 23.5416 18.1164 23.6703 17.5221 23.6703C16.9278 23.6703 16.3393 23.5416 15.7902 23.2917C15.2411 23.0418 14.7422 22.6754 14.3219 22.2136C13.9016 21.7518 13.5683 21.2036 13.3408 20.6002C13.1134 19.9968 12.9963 19.3501 12.9963 18.6971C12.9963 10.6106 19.9057 3.77747 28.0822 3.77747C40.1509 3.77747 44.6767 13.694 44.6767 22.0125C44.6767 28.8838 41.2417 34.1355 35.0021 36.7995C33.6444 37.3814 32.3018 37.7726 31.0994 38.0378V40.2476C31.0994 41.5665 30.6226 42.8315 29.7738 43.7642C28.9251 44.6968 27.774 45.2208 26.5736 45.2208Z" fill="#CCD6DD" fillOpacity="0.7"/>
<path d="M26.5736 58.4826C29.0731 58.4826 31.0994 56.256 31.0994 53.5094C31.0994 50.7628 29.0731 48.5362 26.5736 48.5362C24.0741 48.5362 22.0479 50.7628 22.0479 53.5094C22.0479 56.256 24.0741 58.4826 26.5736 58.4826Z" fill="#CCD6DD" fillOpacity="0.7"/>
</svg>
