<svg width="18" height="19" viewBox="0 0 18 19" fill="none" xmlns="http://www.w3.org/2000/svg">
<path d="M17.578 9.165C17.578 11.5957 16.652 13.9269 15.0038 15.6456C13.3555 17.3644 11.12 18.33 8.789 18.33C6.45801 18.33 4.2225 17.3644 2.57424 15.6456C0.925981 13.9269 0 11.5957 0 9.165C0 6.73429 0.925981 4.40314 2.57424 2.68437C4.2225 0.965596 6.45801 0 8.789 0C11.12 0 13.3555 0.965596 15.0038 2.68437C16.652 4.40314 17.578 6.73429 17.578 9.165ZM6.03804 6.91156H6.94441C7.09602 6.91156 7.21687 6.7821 7.23664 6.62515C7.33552 5.87362 7.8299 5.32601 8.711 5.32601C9.46465 5.32601 10.1546 5.71896 10.1546 6.6641C10.1546 7.39157 9.74371 7.7261 9.09442 8.23475C8.35504 8.79496 7.76948 9.44912 7.81122 10.5111L7.81452 10.7597C7.81567 10.8349 7.84512 10.9066 7.8965 10.9593C7.94789 11.012 8.01709 11.0415 8.08918 11.0415H8.98016C9.053 11.0415 9.12286 11.0114 9.17437 10.9576C9.22588 10.9039 9.25482 10.8311 9.25482 10.7551V10.6348C9.25482 9.81228 9.55474 9.57284 10.3644 8.93244C11.0335 8.40201 11.7311 7.81316 11.7311 6.57703C11.7311 4.84599 10.3293 4.00969 8.79449 4.00969C7.40254 4.00969 5.87764 4.68561 5.77327 6.62859C5.77177 6.66558 5.77754 6.70251 5.79023 6.7371C5.80292 6.77168 5.82225 6.8032 5.84705 6.8297C5.87185 6.8562 5.90159 6.87714 5.93443 6.89122C5.96728 6.90529 6.00254 6.91221 6.03804 6.91156ZM8.59235 14.2928C9.26251 14.2928 9.72283 13.8414 9.72283 13.2308C9.72283 12.5984 9.26141 12.1539 8.59235 12.1539C7.95075 12.1539 7.48383 12.5984 7.48383 13.2308C7.48383 13.8414 7.95075 14.2928 8.59344 14.2928H8.59235Z" fill="#ABABAB"/>
</svg>
