<svg width="20" height="20" viewBox="0 0 20 20" fill="none" xmlns="http://www.w3.org/2000/svg">
<path fill-rule="evenodd" clip-rule="evenodd" d="M9.99967 0.833252C4.93717 0.833252 0.833008 4.93742 0.833008 9.99992C0.833008 15.0624 4.93717 19.1666 9.99967 19.1666C15.0622 19.1666 19.1663 15.0624 19.1663 9.99992C19.1663 4.93742 15.0622 0.833252 9.99967 0.833252ZM13.973 8.44992C14.0462 8.36629 14.1019 8.26887 14.1368 8.16339C14.1718 8.05792 14.1853 7.94651 14.1766 7.83574C14.1678 7.72496 14.137 7.61705 14.086 7.51836C14.0349 7.41966 13.9647 7.33217 13.8793 7.26104C13.7939 7.1899 13.6952 7.13655 13.5889 7.10414C13.4826 7.07172 13.3709 7.06089 13.2604 7.07227C13.1499 7.08366 13.0427 7.11704 12.9453 7.17045C12.8479 7.22385 12.7621 7.29621 12.693 7.38325L9.10967 11.6824L7.25551 9.82742C7.09834 9.67562 6.88784 9.59162 6.66934 9.59352C6.45084 9.59542 6.24183 9.68306 6.08733 9.83757C5.93282 9.99208 5.84518 10.2011 5.84328 10.4196C5.84138 10.6381 5.92538 10.8486 6.07717 11.0058L8.57717 13.5058C8.65905 13.5876 8.75709 13.6515 8.86502 13.6933C8.97295 13.7351 9.08842 13.754 9.20406 13.7488C9.31971 13.7435 9.43299 13.7142 9.53668 13.6628C9.64038 13.6113 9.73221 13.5388 9.80634 13.4499L13.973 8.44992Z" fill="#6667AB"/>
</svg>
